<?xml version="1.0" encoding="UTF-8"?>
<svg width="210mm" height="297mm" version="1.1" viewBox="0 0 210 297" xmlns="http://www.w3.org/2000/svg">
 <g shape-rendering="auto">
  <path d="m-23.875 171.58c-9.3471 1.6078-18.856 0.97749-27.77-1.685-2.684-0.81591-4.6364-2.109-5.8925-3.7791-1.2732-1.6928-1.8425-3.78-1.7081-6.2032 0.26875-4.8465 3.4033-11.018 9.4136-17.655 12.021-13.273 32.536-25.117 50.041-28.891 8.7524-1.8869 15.665-1.5156 19.996 0.67494 2.1658 1.0952 3.6887 2.6318 4.5181 4.5809s0.96475 4.3244 0.29899 7.1051l0.0016 4.5e-4c-2.1595 9.0091-6.3593 17.519-12.4 24.779 0.2202-0.35874 0.42913-0.71528 0.61671-1.067 0.99213-1.8603 1.5268-3.6165 1.5308-5.1936s-0.53683-2.9771-1.6634-4.0383c-2.2531-2.1223-6.3841-2.5987-11.381-1.756s-10.887 3.0291-16.706 6.3888c-5.8192 3.3597-10.662 7.3698-13.89 11.276-3.2282 3.9061-4.8771 7.7195-4.1656 10.732 0.35572 1.5062 1.2967 2.6751 2.6645 3.4602 1.3678 0.78511 3.156 1.2001 5.2631 1.2711 0.39836 0.0134 0.81172 0.0108 1.2324-5.8e-4zm47.081-80.389c-2.1146-2.8449-5.6286-4.7483-10.215-5.6401-6.3177-1.2284-14.684-0.58779-24.38 2.044-19.392 5.2635-40.708 17.57-54.963 31.733-7.1273 7.0812-11.865 14.006-13.96 20.092-1.5192 4.413-1.6315 8.4051-0.23116 11.657-2.3658-2.7795-4.516-5.8087-6.4064-9.0829-2.5801-4.4689-4.527-9.1294-5.8735-13.877l0.01057-3e-3c-1.7517-6.1952 1.6024-14.608 8.7492-23.37 7.1468-8.7623 18.051-17.861 31.23-25.47 13.178-7.6085 26.51-12.503 37.672-14.311 11.162-1.8081 20.12-0.50427 24.609 4.1103l0.00907-0.01058c3.4387 3.5402 6.5023 7.5562 9.0827 12.026 1.8925 3.2778 3.4419 6.6585 4.6667 10.101zm-114.76-0.13759c3.99-11.186 11.25-21.259 21.363-28.646 0.39473-0.28907 0.79554-0.57337 1.2004-0.85465 0.0594-0.04231 0.11856-0.08448 0.17918-0.12482 0.43758-0.30152 0.88115-0.59849 1.329-0.89016 1.8506-1.2047 3.7838-2.3208 5.7523-3.3211 0.47788-0.24278 0.95712-0.47886 1.4385-0.70763 0.06114-0.02995 0.12303-0.05767 0.18526-0.08559 0.44886-0.2116 0.89952-0.41809 1.3502-0.61661 11.454-5.0634 23.807-6.314 35.489-4.1767-10.411-0.23684-24.711 4.2199-38.493 12.177-13.782 7.957-24.793 18.114-29.793 27.248z" color="#000000" color-rendering="auto" dominant-baseline="auto" fill="#000000" image-rendering="auto" solid-color="#000000" style="font-feature-settings:normal;font-variant-alternates:normal;font-variant-caps:normal;font-variant-ligatures:normal;font-variant-numeric:normal;font-variant-position:normal;isolation:auto;mix-blend-mode:normal;shape-padding:0;text-decoration-color:#000000;text-decoration-line:none;text-decoration-style:solid;text-indent:0;text-orientation:mixed;text-transform:none;white-space:normal"/>
  <path d="m-64.656 58.798c-0.96069 0.55465-1.9066 1.1349-2.8319 1.7372-0.44782 0.2917-0.8914 0.58862-1.329 0.89015-0.06048 0.04057-0.11947 0.08304-0.17888 0.12533-0.40482 0.28129-0.80569 0.5655-1.2004 0.85457-2.9982 2.1904-5.7396 4.6219-8.2255 7.2435 3.0721-0.63297 6.1651-1.028 9.2571-1.1839 2.3561-1.6158 4.8295-3.1762 7.3993-4.6599 13.782-7.957 28.082-12.414 38.493-12.177-11.682-2.1373-24.035-0.88665-35.489 4.1767-0.45072 0.19852-0.90136 0.40505-1.3502 0.61665-0.06222 0.02794-0.12444 0.05509-0.18556 0.08508-0.48136 0.22879-0.96061 0.46487-1.4385 0.70765-0.9843 0.50015-1.9597 1.0293-2.9204 1.5839zm23.071 14.648c8.4904 3.6655 16.208 9.2623 22.43 16.593 2.608-0.92909 5.2037-1.7504 7.7652-2.4457 9.6962-2.6318 18.063-3.2724 24.38-2.044 4.586 0.89172 8.0999 2.7947 10.215 5.639-1.2248-3.4425-2.7743-6.8232-4.6667-10.101-2.5804-4.4693-5.644-8.4854-9.0827-12.026l-0.00894 0.01082c-4.4893-4.6146-13.448-5.9185-24.609-4.1103-7.9808 1.2929-17.072 4.1717-26.423 8.4841zm35.288 41.646c2.0826 8.3838 2.3335 16.994 0.89627 25.283 2.4943-0.89317 4.9023-1.549 7.1275-1.9243 4.9969-0.84267 9.128-0.36629 11.381 1.756 1.1265 1.0612 1.6673 2.4612 1.6634 4.0383-4e-3 1.5771-0.53863 3.3332-1.5308 5.1936-0.18757 0.35173-0.39652 0.70826-0.61671 1.067 6.0406-7.2605 10.24-15.77 12.4-24.779l-0.0017-4.5e-4c0.66576-2.7807 0.5304-5.156-0.299-7.1051-0.82939-1.949-2.3523-3.4856-4.5181-4.5809-4.3315-2.1905-11.244-2.5618-19.996-0.67493-2.1307 0.45935-4.3066 1.0403-6.5058 1.7268z" color="#000000" color-rendering="auto" dominant-baseline="auto" fill="#ffd100" image-rendering="auto" solid-color="#000000" style="font-feature-settings:normal;font-variant-alternates:normal;font-variant-caps:normal;font-variant-ligatures:normal;font-variant-numeric:normal;font-variant-position:normal;isolation:auto;mix-blend-mode:normal;shape-padding:0;text-decoration-color:#000000;text-decoration-line:none;text-decoration-style:solid;text-indent:0;text-orientation:mixed;text-transform:none;white-space:normal"/>
  <path d="m-81.036 72.573c-6.066 7.2909-10.275 15.841-12.426 24.892-0.63542 2.7324-0.49171 5.0698 0.32652 6.9926 0.82939 1.949 2.3523 3.4856 4.518 4.5809 4.3316 2.1905 11.244 2.5619 19.996 0.67493 17.505-3.7738 38.02-15.619 50.041-28.891 6.0103-6.6363 9.1449-12.808 9.4136-17.655 0.13438-2.4232-0.43491-4.5104-1.7081-6.2032-1.2732-1.6928-3.2627-2.9977-6.0037-3.8115l4.48e-4 -0.0017c-8.8819-2.6344-18.351-3.252-27.659-1.6509 0.42075-0.01137 0.83401-0.01401 1.2324-5.94e-4 2.1072 0.07096 3.8953 0.48598 5.2631 1.2711 1.3678 0.78511 2.3098 1.9535 2.6656 3.4596 0.71145 3.0124-0.94152 6.8282-4.1697 10.734-3.2282 3.9061-8.0668 7.9138-13.886 11.274-5.8192 3.3597-11.713 5.5486-16.71 6.3912-4.9969 0.84268-9.1238 0.36389-11.377-1.7584-1.1265-1.0611-1.6684-2.4606-1.6644-4.0377s0.53863-3.3332 1.5308-5.1936c0.18758-0.35173 0.39656-0.70834 0.61671-1.067zm93.16-0.57896c1.4065 3.2537 1.2978 7.2486-0.22312 11.667-2.095 6.0855-6.833 13.011-13.96 20.092-14.255 14.163-35.571 26.469-54.963 31.733-9.6962 2.6318-18.063 3.2724-24.38 2.044-4.5814-0.8908-8.0948-2.7896-10.211-5.6285 1.2242 3.4386 2.7725 6.8153 4.6628 10.09 2.5801 4.4689 5.6428 8.4852 9.081 12.025l0.0081-8e-3c4.4893 4.6146 13.452 5.9161 24.614 4.108 11.162-1.8082 24.494-6.7022 37.672-14.311 13.178-7.6085 24.083-16.707 31.23-25.47 7.1468-8.7623 10.497-17.172 8.745-23.368l0.01322-0.0034c-1.3465-4.7481-3.2927-9.4093-5.8731-13.879-1.8924-3.2778-4.0455-6.31-6.4144-9.092zm-57.263 99.458c11.682 2.1374 24.036 0.88635 35.49-4.1773 0.44775-0.19723 0.89431-0.40231 1.3403-0.6123 0.065924-0.031 0.1323-0.0607 0.19798-0.0923 0.47993-0.22818 0.95892-0.46378 1.4354-0.70586 1.9686-1.0003 3.9017-2.1164 5.7523-3.3211 0.44921-0.29243 0.89326-0.58947 1.3321-0.89194 0.056068-0.0387 0.11103-0.0785 0.16704-0.11715 0.40761-0.28304 0.81183-0.56997 1.2091-0.86099 10.112-7.3876 17.372-17.461 21.362-28.646-5.0002 9.1344-16.01 19.29-29.792 27.247s-28.083 12.414-38.494 12.178z" color="#000000" color-rendering="auto" dominant-baseline="auto" fill="#ffd617" image-rendering="auto" solid-color="#000000" style="font-feature-settings:normal;font-variant-alternates:normal;font-variant-caps:normal;font-variant-ligatures:normal;font-variant-numeric:normal;font-variant-position:normal;isolation:auto;mix-blend-mode:normal;shape-padding:0;text-decoration-color:#000000;text-decoration-line:none;text-decoration-style:solid;text-indent:0;text-orientation:mixed;text-transform:none;white-space:normal"/>
  <path d="m-81.036 72.573c-6.066 7.2909-10.275 15.841-12.426 24.892-0.63542 2.7324-0.49171 5.0698 0.32652 6.9926 0.82939 1.949 2.3523 3.4856 4.518 4.5809 4.3316 2.1905 11.244 2.5619 19.996 0.67493 0.65503-0.14121 1.3159-0.29702 1.9788-0.46049-1.9131-8.4165-1.9962-17.035-0.39353-25.304-1.0636 0.2749-2.1068 0.51226-3.1064 0.68082-4.9969 0.84267-9.1238 0.36389-11.377-1.7584-1.1265-1.0611-1.6684-2.4606-1.6644-4.0377s0.53863-3.3332 1.5308-5.1936c0.18758-0.35173 0.39656-0.70834 0.61671-1.067zm-10.578 59.328c1.2242 3.4386 2.7725 6.8153 4.6628 10.09 2.5801 4.4689 5.6428 8.4852 9.081 12.025l0.0081-8e-3c4.4893 4.6146 13.452 5.9161 24.614 4.108 6.5712-1.0645 13.897-3.2074 21.498-6.3353-8.5365-3.8069-16.265-9.5788-22.439-17.115-0.94792 0.28761-1.893 0.56461-2.8329 0.81973-9.6962 2.6318-18.063 3.2724-24.38 2.044-4.5814-0.89081-8.0948-2.7896-10.211-5.6285zm46.475 39.551c11.682 2.1374 24.036 0.88635 35.49-4.1773 0.44775-0.19723 0.89431-0.40231 1.3403-0.6123 0.065924-0.031 0.1323-0.0607 0.19798-0.0923 0.47993-0.22818 0.95892-0.46378 1.4354-0.70586 1.9686-1.0003 3.9017-2.1164 5.7523-3.3211 0.44921-0.29243 0.89326-0.58947 1.3321-0.89194 0.056068-0.0387 0.11103-0.0785 0.16704-0.11715 0.40761-0.28304 0.81183-0.56997 1.2091-0.86099 2.2469-1.6415 4.3444-3.4225 6.305-5.3119-3.6541 0.90273-7.3499 1.4586-11.044 1.6774-1.2087 0.76004-2.4338 1.5101-3.6911 2.236-13.782 7.957-28.083 12.414-38.494 12.178z" color="#000000" color-rendering="auto" dominant-baseline="auto" fill="#ffed4a" image-rendering="auto" solid-color="#000000" style="font-feature-settings:normal;font-variant-alternates:normal;font-variant-caps:normal;font-variant-ligatures:normal;font-variant-numeric:normal;font-variant-position:normal;isolation:auto;mix-blend-mode:normal;shape-padding:0;text-decoration-color:#000000;text-decoration-line:none;text-decoration-style:solid;text-indent:0;text-orientation:mixed;text-transform:none;white-space:normal"/>
 </g>
</svg>
