<?xml version='1.0' encoding='utf-8'?>
<svg xmlns="http://www.w3.org/2000/svg" viewBox="0 0 2427.03 2327.59"><defs><style>.cls-1{fill:#ffcb1f;}.cls-2{fill:#e7e7e7;}.cls-3{fill:#d1a71c;}.cls-4{fill:#e7b81e;}.cls-5{fill:#fedb66;}.cls-6{fill:#ffce2a;}.cls-7{fill:#fef4d1;}.cls-8{fill:#ffd035;}.cls-9{fill:#ffd23f;}.cls-10{fill:#fed038;}.cls-11{fill:#fae59f;}.cls-12{fill:#ffce2d;}.cls-13{fill:#fcdb6c;}.cls-14{fill:#fbde7c;}.cls-15{fill:#fdd44a;}.cls-16{fill:#fbe18d;}.cls-17{fill:#fdd85b;}.cls-18{fill:#fdd243;}.cls-19{fill:#d1d1d1;}</style></defs><title>yellow ball</title><g id="Layer_2" data-name="Layer 2"><g id="Layer_1-2" data-name="Layer 1"><path class="cls-1" d="M155.62,1234.83c-4-13.71-3.31-28-4.36-41.95a1085.39,1085.39,0,0,1,7-226.51Q200,654.28,398.94,410.31q214-261.84,537.79-361.87C1000,28.84,1064.57,15.83,1130.34,8c59-7,118.21-9.7,177.5-6.91,210.26,9.9,403.37,72.62,577.57,191.26q251,171,381.79,445.54c45.84,96,76.36,196.82,92.94,302a1087.88,1087.88,0,0,1,12.39,224.95Q2356,1491.35,2167,1758.58c-2.09,3-3.86,6.23-7.15,8.15-4.57-7.32,1.34-12.12,4.66-17a1252.73,1252.73,0,0,0,69.39-114.61,1078.48,1078.48,0,0,0,77.71-188c21.58-69.93,35.7-141.42,43.43-214.13,2.11-19.88,4.36-39.82,4.41-55-7.71,26.56-18.18,57.19-29.2,87.65-1.17,2.5-2.5,4.93-3.61,7.46-.46,1.3-1,2.56-1.59,3.82a1114.11,1114.11,0,0,1-197,326.44c-87.25,100.72-187.93,185.81-304.14,251.83q-203,115.3-434.52,144.87c-68.21,8.59-136.63,10.45-204.74,6.75q-222.76-12.07-426-106.48c-102.93-48-196.3-110.09-281.32-185C410,1656,351.55,1588.61,299.56,1515.49c-47-66.08-85-137.13-118.13-210.93C172.67,1281.38,163.14,1258.47,155.62,1234.83Z"/><path class="cls-2" d="M1948.83,1987.77a21.15,21.15,0,0,0,13.77,5.07c20.46.44,40.58,4.16,60.86,6.08,27.47,2.61,54.81,6.86,82.05,11.33,28.14,4.62,56.17,10,84.11,15.68,55.21,11.35,109.82,24.67,161.73,47.59,22.72,10,43.87,21.59,61.43,39.58,19,19.46,19,41.6.08,61-16.88,17.31-37.07,28.74-58.87,38.59-42.11,19-86.44,30.72-131,41.55-36.09,8.77-72.77,14.7-109.35,21.16-28.55,5-57.3,8.73-86,12.4-20.14,2.58-40.47,5-60.75,6.94-14.36,1.41-28.93,1.09-43.25,4.26-11.43,2.53-23.55,2.06-35.2,2.62-18.6.9-37.16,2.82-55.71,4-27.15,1.72-54.39,1.28-81.52,4.52-16.64,2-33.75-.32-50.57.65q-81.23,4.7-162.5,2c-36.4-1.24-72.83-.74-109.15-2.62-33.07-1.71-66.2-3.22-99.21-5.62-16.81-1.22-33.56-1.46-50.33-2.28-13.32-.65-26.22,2.42-39.29,3.67-15.3,1.46-30.73,2.46-45.86,4.94-15.73,2.57-31.66,1.38-47.35,4.46-12,2.35-24.5,2.37-36.56,2.73-21.37.63-42.64,2.67-63.94,3.86-30.46,1.69-61,.72-91.35,2.76-73.34,5-146.69,2.11-220,1.55-26.25-.2-52.76-.29-79-2.24-31.24-2.31-62.54-3.41-93.76-5.6-21.67-1.53-43.44-3-65-5.5-22-2.58-44.14-4.5-66.16-6.94-25.65-2.86-51.19-6.67-76.86-9.39-22.92-2.43-45.67-6.76-68.37-10.95-37.88-7-75.77-14.08-112.94-24.31-40.8-11.22-81.26-23.5-119.17-42.86a161.28,161.28,0,0,1-43.37-32.69C-1.49,2173.3-3,2152.62,4.84,2139c7.06-12.36,17.61-20.4,28.58-28.59,17.38-13,37.11-21.36,57-29.16,56-22,114.55-35,173.35-46.44,36.85-7.18,74.08-12.47,111.34-17.51q41-5.57,82.21-9.85c25.19-2.65,50.5-5.15,75.87-6.64,12.3-.73,25-1.26,39-3.49-9.39-11.53-20.49-18.72-30.43-26.8-10.58-8.6-20.84-17.69-30.73-26.87-26-24.2-51.45-49.22-75.51-75.38-20.55-22.34-39.79-45.92-58.32-70.09A1116.21,1116.21,0,0,1,303.56,1690a1075.2,1075.2,0,0,1-58.68-112.53c-17.61-39.54-33.37-79.74-46.27-121-8.41-26.86-15.36-54.18-22.66-81.37-1-3.83-.36-8.12-.48-12.19,7.08,1.71,6.44,8.29,7.61,13.15a1082.16,1082.16,0,0,0,96.26,253.61,1111.52,1111.52,0,0,0,136.18,201,1131.63,1131.63,0,0,0,153.65,149.14,36.08,36.08,0,0,1,9.15,10c7.66,15.71,23.22,22.81,36.21,32.37,43.37,31.92,89.75,59.05,137.33,84.15,14,7.39,15.23,9.28,9.14,23.26-7.13,16.39-1.34,29.24,9.26,41.17,21,23.64,49.12,35.73,77.74,46.67,75.38,28.81,154.17,43.64,233.43,56.44,59.37,9.58,119.18,15.47,179,21.64,23.8,2.45,47.26-1.4,70.69-5,78-11.93,155.48-26.47,230.31-52.33,25-8.63,49.76-18,71.83-33.06,18.87-12.85,35.86-27.15,36.57-52.71.07-2.26,1.42-4.3,2.78-6.16,7.81-8.36,18.93-10.63,28.79-14.93a1096.86,1096.86,0,0,0,233.1-137.62C1938.6,1990.56,1942.49,1986,1948.83,1987.77Z"/><path class="cls-3" d="M575,1989.8c-20.36-17.54-41-34.74-61-52.69-68.93-61.83-128.61-131.7-179.92-208.76q-109.87-165-155.8-357.88c-.63-2.63-.61-5.49-2.79-7.53-4.21-22.83-8.78-45.6-12.5-68.5-3.21-19.76-7.12-39.47-7.35-59.61,1.34-.94,2.48-.87,3.06.82,7.71,22.74,18.42,44.38,24.74,67.63,18.66,48.93,33.31,99.32,54.91,147.17,36.74,81.38,81.52,158,135.94,228.8,33.37,43.45,69.33,84.71,108.94,122.5,70.25,67,147.52,124.65,232.57,171.82,113.27,62.81,234.07,103.64,361.72,124.1a1009.1,1009.1,0,0,0,142.75,12.62c80.93,1.36,161.22-3.36,240.71-19.15,105.82-21,206.87-56,302.17-106.46A1119.1,1119.1,0,0,0,1989,1826.78c110.29-99.31,196.48-216.27,260.52-349.78,28.66-59.76,49.78-122.41,68.89-185.76,1.82-6,4.38-11.82,5.61-18h0c1.66-1.48,1.09-4,2.62-5.55l34.05-104.18c.67,16.17,1.75,31.87-.23,47.83-2.28,18.37-3.88,36.89-6.14,55.33q-5.12,41.82-13.87,83a1095.38,1095.38,0,0,1-38.58,138.95c-11.65,33-24.92,65.33-39.5,97.19-27.15,59.31-60.14,115.15-96.9,168.9-2.46,3.61-6.38,6.82-5.6,12.06-13.28,21.24-29.54,40.22-45.51,59.38a1124.77,1124.77,0,0,1-161.58,157.94c-1.4,1.12-2.62,2.47-3.93,3.72-24.23,17.58-48,35.79-73,52.33-60.38,40-123.78,74.25-190.79,101.78-3.35,1.37-6.54,3.13-9.8,4.71-8.38,7.45-18.75,11-29,14.74a1134.08,1134.08,0,0,1-265.74,62.16c-55.81,6.21-111.93,8.56-167.9,5.65-173.34-9-337-52.83-489.07-138.18a1261,1261,0,0,1-133-85.92C584.57,2000.62,580.34,1994.7,575,1989.8Z"/><path class="cls-4" d="M2324,1273.21c-1.72,20.09-8.49,39-14.4,58-20.72,66.6-46.79,131.1-79.6,192.71a1126.27,1126.27,0,0,1-91.17,143.8c-21.17,28.4-44,55.35-67.54,81.89Q2040,1785,2005.4,1817c-24.56,22.78-50.26,44.39-76.83,65-41.72,32.44-85.67,61.41-131.2,87.94a962.23,962.23,0,0,1-110,54.46c-33.55,14.18-67.45,27.24-102.1,38.32A1113.93,1113.93,0,0,1,1444,2097.58q-44.12,8-88.63,12.53c-16.13,1.62-32.43,3.79-48.85,3.55-28.27-.42-56.55-.35-84.82,0-27.75.32-55.25-1.9-82.81-5.06-16.63-1.91-33.27-3.67-49.9-5.72-23.41-2.88-46.49-7.55-69.52-12.31a1040.14,1040.14,0,0,1-132.41-36.81c-32.2-11.23-63.68-24.22-94.91-38a935.14,935.14,0,0,1-86.5-43.7c-41.45-23.64-81.62-49.37-119.52-78.5-29.53-22.69-58.22-46.26-85.8-71.38-17.53-16-35.09-32-50.88-49.45C424.26,1744.82,399,1716.92,376,1687c-30.89-40-59.5-81.53-84.72-125.18-28.91-50.06-54.56-101.9-75.07-156.12-11.91-31.48-22.48-63.4-32-95.68-.63-2.14-.53-4.49-.78-6.75,6.28,5.92,7.26,14.49,10.87,21.74,25.54,51.35,51,102.65,82.78,150.71,23.81,36,49,71,76,104.64,15.58,19.45,31.42,38.91,49.76,56.05,8.31,7.76,14.45,17.45,22.64,25.47,26.32,25.78,54,50,81.95,74a1072.67,1072.67,0,0,0,117.08,86.65c26,16.74,52.84,32,80,46.87,43.65,23.81,89,43.82,135.28,61.5,32.26,12.32,65.31,22.53,98.53,32.13,34,9.84,68.65,17,103.38,23.53,21.31,4,42.9,6.76,64.44,9.68,24.26,3.3,48.7,6,72.94,7,46.89,2.07,94,1.62,140.89.12a531.16,531.16,0,0,0,54.07-4.86c21.53-2.91,43.15-5.33,64.5-9.22,30.29-5.52,60.61-11.22,90.48-18.63,30.39-7.53,60.42-16.61,90.14-26.72a1164.06,1164.06,0,0,0,335.08-179.87c20.47-15.75,39.83-33,59.41-49.95,25.23-21.83,47.74-46.28,71.56-69.47,25.76-25.07,48.22-53.05,70.78-81,24.9-30.83,47.41-63.28,68.59-96.64a1106.09,1106.09,0,0,0,76.46-141.6C2308.76,1308.06,2314.52,1289.81,2324,1273.21Z"/><path class="cls-5" d="M813.86,753.09c-9.58,0-19.17-.19-28.74,0-30.41.73-60.66,2.57-90.82,7.46-20.6,3.34-41.2,6.18-61.45,11.45-12.32,3.21-14,1.36-14.21-11.84-.48-32.45,5.79-64.11,11.82-95.74,4.76-25,10-49.82,16.08-74.48,3-12.3,8.09-24.13,12.67-36,9.84-25.49,20.14-50.83,33.53-74.7,12.9-23,26.34-45.73,40-68.28,3.78-6.23,3.59-15.35,12.71-18.09,5.64-1.7,10.89-4.8,16.57-6.26,38.69-9.91,76.75-22.36,116.26-28.93,19.67-3.27,39.45-5.51,59.32-7.55,34.18-3.51,68.32-2.59,102.37-1.72a841.62,841.62,0,0,1,100.33,8.09,30.73,30.73,0,0,1,3.93,1.12c15.66,4.42,16.13,6.26,5.7,19-19.57,23.9-39.32,47.66-58.33,72A190.59,190.59,0,0,0,1072,479.71c-19.15,37.76-40.27,74.56-54.24,114.81-8,23.2-17.44,45.92-25.92,69a742.77,742.77,0,0,0-28.28,96.73c-2.53,11.47-4.49,13.41-13.95,10.54C905.33,757.33,860.31,749.74,813.86,753.09Z"/><path class="cls-6" d="M1842.22,1109c-14.84,19.67-32.65,36.31-50.87,52.87-17.55,16-36.08,30.35-55.21,44.2-14.14,10.23-16.05,8.67-26.51-4.57-13-16.52-21.14-35.88-29.05-55.36-14.06-34.66-21.54-71.23-32.35-106.83-9.34-30.77-17.59-61.9-23.19-93.62q-3.07-17.34-4.76-34.93c-5.45-55.93-1.62-112-2.26-167.94-.27-23.15,6.19-45.75,11.9-68.09a475.2,475.2,0,0,1,20.86-63.39,121.32,121.32,0,0,1,18.46-31.63c-.34,16.15,12.22,20.28,20.45,27.19,35.13,29.5,65.54,62.87,89.43,102.12,11.81,19.4,24.67,38.21,35.54,58.11,11.77,21.54,20.34,44.61,27.55,68.12-15.52,1.58-26.9,10.53-36.64,21.59-31,35.2-52.91,75-61,121.78-6.61,38.17-2.26,75.23,9.17,111.85,5.3,17,11.21,33.73,19,49.76,6.11,12.62,12.69,14.27,23.32,5.25,11.11-9.43,20.61-20.61,31.32-30.5C1831.33,1111.22,1834.89,1105,1842.22,1109Z"/><path class="cls-7" d="M2170.48,795.64c-.88,14,1.7,34.5-2.05,54.92-2.5,13.61-6.87,24-22.67,26.39-7.48,1.12-14.54,5.14-21.76,7.9-7,2.69-14.29,2.45-21.6,2.29-8.26-.18-13.53-4.14-16.53-11.85-5.28-13.58-11.37-26.87-16.24-40.59-9.18-25.91-22.57-49.67-35.53-73.75-20.31-37.73-42.16-74.5-65.25-110.59-18.27-28.56-40-54.24-63.3-78.69-28.57-30-57.23-60-90.14-85.52a293.83,293.83,0,0,0-27.05-18.52c-5-3.08-10.21-6-15.08-9.38-12.33-8.52-12.45-10.36-2.19-21.8a126.49,126.49,0,0,0,19.25-28.08C1797.45,394.1,1805,380,1812.6,366c4.61-8.44,8.17-10,16.46-5,22.67,13.44,46,25.65,66,43.48,25.85,23,54,43.32,80,66.17,33.83,29.77,70.31,57.24,97.83,93.18,21.28,27.79,45.57,53.41,63.3,83.92a52.64,52.64,0,0,0,9,12c13.5,12.67,16.93,29.1,20.28,46.44C2170.8,733.73,2170.88,761.39,2170.48,795.64Z"/><path class="cls-8" d="M1842.22,1109c-5.27-.11-8,3.9-11.15,7q-15,14.89-29.93,29.94c-3.55,3.6-7.25,6.93-12.13,8.57-8.35,2.79-14,.31-17.72-7.77-15.45-33.5-27.64-68.31-32.29-104.82-2.89-22.72-2.68-46.19,2.93-69.07,6.73-27.45,14.44-54.5,30.88-78,14.23-20.34,26.86-42.08,48.25-56.44,6.84-4.6,13.14-8.31,21.15-3.23,10,17.8,21.81,34.72,27.37,54.75-14.19-2.2-22,5.21-26.44,17.62-13.8,38.38-21.12,77.63-17.44,118.66,1.78,19.84,1.43,39.89,5.16,59.55,2.56,13.49,4.42,14.48,18.14,11.74,6.34,6.54-1,8.19-4.06,11.39Z"/><path class="cls-9" d="M1850.42,1098a35.89,35.89,0,0,0-3.44,2.2c-10.39,8.36-14.36,6.76-18.42-6.38-3.52-11.42-4.48-23.46-4.82-34.88-.58-19.09-4.74-38.05-3.23-57.07,2.71-34.35,6.41-68.66,21.47-100.44a63.31,63.31,0,0,1,3.08-6.1c6.62-10.81,13.56-12.3,24.52-5.36,10,16.53,13.57,35.72,22,52.84,8.86,18.12,11.71,38.16,19.52,56.52,2.51,5.91,2.56,11.19-.46,17-3.15,6-5.49,12.47-8.18,18.73-1,.84-1.81,1.84-2.72,2.75h0c-7.47,5.79-10.31,14.81-14.92,22.45a153.62,153.62,0,0,1-29.16,35.52,13.19,13.19,0,0,1-3.27,2C1851.69,1097.84,1851.05,1097.92,1850.42,1098Z"/><path class="cls-10" d="M791,156.33c1.83-2.9,5-3.83,7.82-5.23,38.56-19.38,78-36.53,119-50.38,20.19-6.83,40.53-13,60.88-19.2,4.73-1.45,9.08-2.8,16.33,1.55C925,103.29,859,126.55,796.59,159.14,794.34,159,792.27,158.49,791,156.33Z"/><path class="cls-11" d="M621.31,271c-22.23,19.23-43.78,39.18-64.22,60.3-3.44,3.55-7.31,6.8-9.51,11.4-2.32,2.2-3.65,6.43-7.82,5.08-2.34-.75-2-3.29-.87-5.33,20.17-26.94,45.25-49,70.48-70.94,2.68-2.34,6.08-3.85,9.14-5.74,3.08-1.68,5.51-2.06,5.41,2.67v.06A12.14,12.14,0,0,1,621.31,271Z"/><path class="cls-12" d="M1853.15,1095.26c6-9.53,15.66-15.89,21.93-25.45,5.16-7.87,11-15.28,15.05-23.84,2-4.17,4-8.22,9.55-8.19-12.17,24.67-25,48.87-46.5,67.09-2.47,2.1-4.79,4.13-8.24,4.06,1.55-3.78,5.88-6.17,5.48-10.93C1851.45,1097.21,1852.17,1096.1,1853.15,1095.26Z"/><path class="cls-13" d="M662.55,230.33c17.62-12.79,36-24.39,54.65-35.62,3.41-2,5.68-1.77,5.63,2.92a539.58,539.58,0,0,1-54.72,35.66C665.86,233.05,663.79,232.47,662.55,230.33Z"/><path class="cls-14" d="M662.55,230.33c2.36,0,4.4.67,5.56,3-1.6,1.55-3,3.53-4.84,4.6-14.62,8.27-26.33,20.25-39.35,30.56-1.15-2.2-3.25-2.49-5.41-2.67C630.62,250.77,647.19,241.3,662.55,230.33Z"/><path class="cls-15" d="M791,156.33c2.27.1,4.36.57,5.55,2.81-16,11-34.49,16.72-51.87,24.79a3.59,3.59,0,0,1-3-3A271.34,271.34,0,0,1,791,156.33Z"/><path class="cls-16" d="M1520.77,295.78c-4.34-.55-10.44-.27-12-6.94-1-4.3,5.82-9.39,11.31-9.06,6.43.39,10.52,4.43,10.19,10.06C1529.93,294.63,1528.24,295.82,1520.77,295.78Z"/><path class="cls-17" d="M741.69,180.9c1,1,2,2,3,3-5.89,6.8-14,10.12-21.89,13.7-1.2-2.28-3.27-2.87-5.62-2.92A107.86,107.86,0,0,1,741.69,180.9Z"/><path class="cls-18" d="M538.89,342.46c2.64,9.12,5.81-.48,8.69.25a9.27,9.27,0,0,1-2.4,5.94c-2.73,2.75-6,6.9-9.7,3.11S535.4,344.76,538.89,342.46Z"/><path class="cls-4" d="M2326.62,1267.66c.05,2.29-.42,4.32-2.62,5.55C2324,1270.94,2324.48,1268.91,2326.62,1267.66Z"/><path class="cls-14" d="M621.31,271l2.62-2.5A3.08,3.08,0,0,1,621.31,271Z"/><path class="cls-12" d="M1899.69,1037.78c.9-.92,1.81-1.84,2.72-2.75C1901.5,1035.94,1900.59,1036.86,1899.69,1037.78Z"/><path class="cls-19" d="M575,1989.8c11.58,6.45,21.24,15.54,31.91,23.24,108.56,78.3,226.71,136.61,355.91,172.41a1135.55,1135.55,0,0,0,155,31.52,1059.8,1059.8,0,0,0,193.63,8.15c124.09-6.39,244.42-31,359.85-77.83a18.5,18.5,0,0,1,4-.7,19,19,0,0,0-2.78,10.4c.62,13.27-5.75,23.52-14.5,32.64-14.71,15.34-32.61,26.12-51.71,34.87-47.75,21.86-98.31,35.13-149.2,46.92-36.59,8.48-73.63,14.94-110.85,20.3-24.21,3.49-48.16,9-72.84,7.94-17.65-.75-35.19-2.56-52.73-4.81-9.86-1.27-19.82-2.06-29.72-3.11-21.15-2.24-42.22-4.95-63.3-7.71-25.59-3.36-51-7.39-76.51-11.51-28.18-4.56-56.07-10.39-84-16.39a848.64,848.64,0,0,1-93.22-25.26c-30.57-10.31-60.92-21.46-87.68-40.3a101.47,101.47,0,0,1-23.5-22.66c-9.3-12.68-13-26.62-4.14-41.94,5.39-9.36,4.67-9.83-5.2-14.89a1126.13,1126.13,0,0,1-119.65-70.79c-16.12-11-31.54-23-47.45-34.27A27.65,27.65,0,0,1,575,1989.8Z"/><path class="cls-8" d="M1853.15,1095.26l-2.73,2.74Z"/></g></g></svg>